<?xml version="1.0" encoding="UTF-8" standalone="no"?>
<!-- Created with Inkscape (http://www.inkscape.org/) -->
<svg
   xmlns:dc="http://purl.org/dc/elements/1.1/"
   xmlns:cc="http://web.resource.org/cc/"
   xmlns:rdf="http://www.w3.org/1999/02/22-rdf-syntax-ns#"
   xmlns:svg="http://www.w3.org/2000/svg"
   xmlns="http://www.w3.org/2000/svg"
   xmlns:sodipodi="http://sodipodi.sourceforge.net/DTD/sodipodi-0.dtd"
   xmlns:inkscape="http://www.inkscape.org/namespaces/inkscape"
   width="245.88446"
   height="422.68091"
   id="svg2212"
   sodipodi:version="0.32"
   inkscape:version="0.45+devel"
   sodipodi:docbase="/home/alvaro"
   sodipodi:docname="tortuga5.svg"
   inkscape:output_extension="org.inkscape.output.svg.inkscape"
   version="1.0"
   sodipodi:modified="TRUE">
  <defs
     id="defs2214" />
  <sodipodi:namedview
     id="base"
     pagecolor="#ffffff"
     bordercolor="#666666"
     borderopacity="1.0"
     inkscape:pageopacity="0.0"
     inkscape:pageshadow="2"
     inkscape:zoom="0.7"
     inkscape:cx="345.01392"
     inkscape:cy="268.15618"
     inkscape:document-units="px"
     inkscape:current-layer="layer1"
     inkscape:window-width="1022"
     inkscape:window-height="690"
     inkscape:window-x="0"
     inkscape:window-y="26" />
  <metadata
     id="metadata2217">
    <rdf:RDF>
      <cc:Work
         rdf:about="">
        <dc:format>image/svg+xml</dc:format>
        <dc:type
           rdf:resource="http://purl.org/dc/dcmitype/StillImage" />
      </cc:Work>
    </rdf:RDF>
  </metadata>
  <g
     inkscape:label="Capa 1"
     inkscape:groupmode="layer"
     id="layer1"
     transform="translate(-158.42856,-23.416397)">
    <g
       id="g2191"
       transform="matrix(0.6015645,0,0,0.6015645,63.123554,9.3299227)"
       inkscape:export-filename="/home/alvaro/tortuga5.png"
       inkscape:export-xdpi="90"
       inkscape:export-ydpi="90">
      <path
         sodipodi:nodetypes="cscscc"
         id="path3299"
         d="M 347.49248,615.97628 C 333.9694,631.33704 343.78125,634.06756 351.84431,662.60618 C 356.30728,678.40254 330.61271,690.1216 346.48233,723.05245 C 340.99188,673.28225 360.71231,684.16758 362.92522,664.24991 C 365.24889,643.33545 358.43029,622.33916 376.7869,614.96613 L 347.49248,615.97628 z"
         style="fill:#00a600;fill-opacity:1;fill-rule:evenodd;stroke:#000000;stroke-width:6;stroke-linecap:butt;stroke-linejoin:miter;stroke-miterlimit:4;stroke-dasharray:none;stroke-opacity:1" />
      <g
         inkscape:export-ydpi="90"
         inkscape:export-xdpi="90"
         inkscape:export-filename="/home/alvaro/tortuga5.png"
         id="g3309">
        <path
           style="fill:#00a600;fill-opacity:1;fill-rule:evenodd;stroke:#000000;stroke-width:6;stroke-linecap:round;stroke-linejoin:miter;stroke-miterlimit:4;stroke-dasharray:none;stroke-opacity:1"
           d="M 450.52804,210.90512 C 453.20655,188.69192 493.18244,144.4759 518.20826,107.36449 C 516.03028,120.05707 496.47815,144.79383 505.11276,150.39487 C 511.2216,154.35751 517.458,138.96553 538.41131,128.57768 C 540.9214,139.58589 525.88221,151.91962 552.55344,162.92287 C 535.44602,167.22261 531.0316,175.14893 551.54329,190.19699 C 510.46604,170.25587 494.07651,201.40969 478.30724,221.51172 C 469.55258,215.86213 459.2827,212.52947 450.52804,210.90512 z"
           id="path3301"
           sodipodi:nodetypes="ccsccccc" />
        <path
           style="fill:#651f00;fill-opacity:1;fill-rule:evenodd;stroke:#000000;stroke-width:6;stroke-linecap:butt;stroke-linejoin:miter;stroke-miterlimit:4;stroke-dasharray:none;stroke-opacity:1"
           d="M 254.28571,213.79075 C 234.08409,227.62088 215.72997,242.6854 195.71429,275.21933 L 175.71429,386.6479 C 177.95722,418.6755 165.04653,453.73383 184.28571,482.36218 C 192.08184,533.1262 192.30569,572.78006 322.85714,615.21933 C 433.14908,620.00608 496.1065,600.46168 512.85714,568.07647 C 524.84124,542.73947 568.3361,419.1571 538.60078,316.63817 C 517.91651,244.21123 486.1284,210.55479 412.89548,203.95323 C 391.42042,202.59504 387.50597,231.58702 330.71429,206.64791 C 326.14589,220.07799 280.18318,211.0252 254.28571,213.79075 z"
           id="path2230"
           sodipodi:nodetypes="cccccccccc" />
        <path
           style="fill:#00a700;fill-opacity:1;fill-rule:evenodd;stroke:#000000;stroke-width:6;stroke-linecap:butt;stroke-linejoin:miter;stroke-miterlimit:4;stroke-dasharray:none;stroke-opacity:1"
           d="M 334.28571,95.93361 L 412.14286,90.219324 C 410.55201,80.85247 422.80213,69.12039 420.71429,64.505039 C 420.14928,59.813706 399.54466,59.552768 398.74985,49.972575 C 397.72781,37.653663 383.09027,24.502889 371.42857,26.647896 C 356.5867,27.327011 356.96514,40.185821 352.22505,49.835561 C 347.27867,59.905275 331.06004,49.763103 327.85714,59.505038 C 324.66533,66.83437 330.71823,79.040705 334.28571,95.93361 z"
           id="path3293"
           sodipodi:nodetypes="cccscscc" />
        <path
           style="fill:#34ff02;fill-opacity:1;fill-rule:evenodd;stroke:#000000;stroke-width:6;stroke-linecap:butt;stroke-linejoin:miter;stroke-miterlimit:4;stroke-dasharray:none;stroke-opacity:1"
           d="M 390.71429,55.219325 C 391.79131,70.507755 380.11884,82.503615 410,88.790754 C 416.56631,68.428075 419.85838,69.106021 414.72748,62.159019 C 410.24979,56.096444 400.60956,60.872272 390.71429,55.219325 z"
           id="path3295"
           sodipodi:nodetypes="ccsc" />
        <path
           style="fill:#00a600;fill-opacity:1;fill-rule:evenodd;stroke:#000000;stroke-width:6;stroke-linecap:butt;stroke-linejoin:miter;stroke-miterlimit:4;stroke-dasharray:none;stroke-opacity:1"
           d="M 407.85714,200.93361 C 415.66297,181.70065 423.7479,164.0112 412.85715,146.64789 C 423.92334,118.7175 410.64274,125.12369 412.85714,90.219324 C 374.50207,91.085265 406.76989,49.06593 373.57143,43.076467 C 334.02803,47.22898 371.60688,98.48573 328.57144,95.219324 C 333.09817,145.45824 317.41482,108.31375 337.14286,205.21932 C 367.91823,216.52571 381.2914,214.77938 407.85714,200.93361 z"
           id="path3291"
           sodipodi:nodetypes="ccccccc" />
        <path
           style="fill:#000000;fill-opacity:1;fill-rule:evenodd;stroke:#000000;stroke-width:6;stroke-linecap:butt;stroke-linejoin:miter;stroke-miterlimit:4;stroke-dasharray:none;stroke-opacity:1"
           d="M 397.14286,208.07647 C 382.74088,200.17762 383.78856,180.11084 394.67295,160.42693 C 403.06645,145.24768 407.74291,113.74827 392.75616,111.99832 C 365.80371,108.85118 388.30408,138.79016 370,138.79075 C 359.52234,139.27609 365.37637,101.94252 342.85589,115.45738 C 325.03354,126.15283 354.2476,140.76419 341.00173,166.7759 C 333.41687,181.67074 341.92103,199.7793 335,208.07647 C 356.149,212.42364 377.79264,221.7171 397.14286,208.07647 z"
           id="path3283"
           sodipodi:nodetypes="csscsscc" />
        <path
           style="fill:#3bff00;fill-opacity:1;fill-rule:evenodd;stroke:#000000;stroke-width:6;stroke-linecap:butt;stroke-linejoin:miter;stroke-miterlimit:4;stroke-dasharray:none;stroke-opacity:1"
           d="M 268.57143,248.07647 C 248.85826,282.17436 239.77909,278.05068 233.57143,279.50504 C 238.7128,286.74463 229.33964,302.78445 219.28572,325.21933 C 248.5404,306.91801 280.39428,341.70576 300.71429,301.64789 C 273.49089,291.21551 293.3253,282.15223 268.57143,248.07647 z"
           id="path3202"
           sodipodi:nodetypes="ccccc" />
        <path
           style="fill:#3bff00;fill-opacity:1;fill-rule:evenodd;stroke:#000000;stroke-width:6;stroke-linecap:butt;stroke-linejoin:miter;stroke-miterlimit:4;stroke-dasharray:none;stroke-opacity:1"
           d="M 218.57143,334.50504 C 233.37467,368.49786 221.10643,371.55184 210,375.93361 C 215.96018,385.01164 218.03769,397.73542 220,414.50504 C 236.56307,406.10448 248.07597,408.43719 279.28571,409.50504 L 300,373.07647 C 286.25953,367.86149 283.46659,359.08492 272.85714,334.50504 C 251.30298,334.62387 264.37472,334.48636 218.57143,334.50504 z"
           id="path3204"
           sodipodi:nodetypes="ccccccc" />
        <path
           style="fill:#3bff00;fill-opacity:1;fill-rule:evenodd;stroke:#000000;stroke-width:6.33516216;stroke-linecap:butt;stroke-linejoin:miter;stroke-miterlimit:4;stroke-dasharray:none;stroke-opacity:1"
           d="M 214.4533,421.10118 C 242.40479,461.39301 223.49106,456.57186 212.31045,473.9819 C 219.07359,483.44645 229.33249,478.45821 235.79809,513.62317 C 248.42846,473.69104 257.99241,497.88315 287.63541,483.77736 C 288.20566,472.33647 291.16307,460.89559 299.83243,449.4547 C 290.59152,444.1046 282.85169,433.84882 273.91376,424.08577 C 252.50727,429.12886 226.27453,419.96684 224.97005,416.83623 C 223.49414,413.29418 217.65411,417.85832 214.4533,421.10118 z"
           id="path3206"
           sodipodi:nodetypes="ccccccsc" />
        <path
           style="fill:#3bff00;fill-opacity:1;fill-rule:evenodd;stroke:#000000;stroke-width:6;stroke-linecap:butt;stroke-linejoin:miter;stroke-miterlimit:4;stroke-dasharray:none;stroke-opacity:1"
           d="M 247.14286,524.50504 C 258.12603,538.29697 282.62057,532.73547 275.71428,564.50505 C 294.03716,540.31722 290.01487,562.90353 293.73382,556.21628 C 304.81111,536.2976 303.28557,527.60479 315.71429,526.6479 C 298.33794,518.36777 295.83493,498.50252 284.94276,496.18672 C 275.30713,494.13807 263.86533,501.0643 247.14286,524.50504 z"
           id="path3208"
           sodipodi:nodetypes="ccscsc" />
        <path
           style="fill:#3bff00;fill-opacity:1;fill-rule:evenodd;stroke:#000000;stroke-width:6;stroke-linecap:butt;stroke-linejoin:miter;stroke-miterlimit:4;stroke-dasharray:none;stroke-opacity:1"
           d="M 323.57143,530.21932 C 333.24614,531.94969 342.22682,532.29201 350,530.21932 C 347.07486,544.66661 343.42337,558.93231 347.85714,575.21932 C 338.97472,571.50209 331.76251,571.1253 328.57143,578.79075 C 326.72957,569.69281 316.19788,567.54674 305,565.93361 C 314.97158,556.54958 319.15323,543.3056 323.57143,530.21932 z"
           id="path3210"
           sodipodi:nodetypes="cccccc" />
        <path
           style="fill:#3bff00;fill-opacity:1;fill-rule:evenodd;stroke:#000000;stroke-width:6;stroke-linecap:butt;stroke-linejoin:miter;stroke-miterlimit:4;stroke-dasharray:none;stroke-opacity:1"
           d="M 365.71429,524.50504 C 378.20503,526.60194 397.32871,539.59219 402.85714,529.50504 C 406.62486,542.16589 413.89088,555.61416 421.42857,564.50504 C 409.61328,561.97546 407.58541,569.23331 402.85714,573.79075 C 392.65564,572.43551 380.02026,568.66411 364.28571,580.21932 C 361.98859,565.56976 364.44217,544.50846 365.71429,524.50504 z"
           id="path3212"
           sodipodi:nodetypes="cccccc" />
        <path
           style="fill:#3bff00;fill-opacity:1;fill-rule:evenodd;stroke:#000000;stroke-width:6;stroke-linecap:butt;stroke-linejoin:miter;stroke-miterlimit:4;stroke-dasharray:none;stroke-opacity:1"
           d="M 435,495.21932 C 429.32093,505.32496 421.82875,509.9913 414.28571,514.50504 C 425.56035,531.1717 430.65793,547.83837 436.42857,564.50503 C 448.6675,550.73729 450.31529,543.96465 467.85714,547.36218 C 461.60967,530.29087 469.15187,521.37763 477.85715,515.93361 C 463.10814,510.88202 447.93962,507.50846 435,495.21932 z"
           id="path3214"
           sodipodi:nodetypes="cccccc" />
        <path
           style="fill:#3bff00;fill-opacity:1;fill-rule:evenodd;stroke:#000000;stroke-width:6;stroke-linecap:butt;stroke-linejoin:miter;stroke-miterlimit:4;stroke-dasharray:none;stroke-opacity:1"
           d="M 438.57143,413.79075 C 458.72737,414.22377 485.29757,422.67461 498.57143,414.50504 C 493.93259,422.73984 501.46309,433.00286 507.85714,443.07647 C 501.27095,456.02303 476.43631,486.78876 500.71429,500.93361 C 492.38857,499.039 489.12761,503.8974 486.42857,509.50504 C 474.30885,495.39958 457.04567,494.15276 441.42857,488.79075 C 440.0297,475.86414 429.3238,459.83519 422.85714,445.21932 C 429.4159,433.42246 433.83597,423.7643 438.57143,413.79075 z"
           id="path3216"
           sodipodi:nodetypes="cccccccc" />
        <path
           style="fill:#3bff00;fill-opacity:1;fill-rule:evenodd;stroke:#000000;stroke-width:6;stroke-linecap:butt;stroke-linejoin:miter;stroke-miterlimit:4;stroke-dasharray:none;stroke-opacity:1"
           d="M 440,333.79075 C 438.74412,351.3771 425.90114,363.16989 417.85714,377.36218 C 431.3302,383.95898 434.17332,395.87076 440.71429,405.93361 C 460.43048,405.55836 474.04334,394.73029 497.14286,404.50504 C 493.48338,392.916 501.76941,389.28749 507.14286,379.50504 C 503.31457,364.98927 483.75711,355.58192 503.57143,330.93361 C 481.09075,335.75659 460.64241,334.48258 440,333.79075 z"
           id="path3259"
           sodipodi:nodetypes="ccccccc" />
        <path
           style="fill:#3bff00;fill-opacity:1;fill-rule:evenodd;stroke:#000000;stroke-width:6;stroke-linecap:butt;stroke-linejoin:miter;stroke-miterlimit:4;stroke-dasharray:none;stroke-opacity:1"
           d="M 444.28571,248.07647 C 452.72245,254.98123 457.32765,261.88599 476.42857,268.79075 C 465.38944,275.81918 471.73174,285.12658 487.14286,295.93361 C 484.0165,303.65412 487.21348,311.53853 493.57143,317.36218 C 478.52587,306.01577 440.183,330.68045 429.83113,307.46845 C 413.03481,269.80604 434.99433,283.40279 444.28571,248.07647 z"
           id="path3261"
           sodipodi:nodetypes="ccccsc" />
        <path
           style="fill:#3bff00;fill-opacity:1;fill-rule:evenodd;stroke:#000000;stroke-width:6;stroke-linecap:butt;stroke-linejoin:miter;stroke-miterlimit:4;stroke-dasharray:none;stroke-opacity:1"
           d="M 282.85714,256.6479 C 292.18479,261.03169 296.85394,267.74474 298.57143,275.93361 C 300.61718,264.95303 310.6864,252.36776 322.14286,239.50504 C 308.43308,247.67748 294.70917,255.90647 282.85714,256.6479 z"
           id="path3263"
           sodipodi:nodetypes="cccc" />
        <path
           style="fill:#3bff00;fill-opacity:1;fill-rule:evenodd;stroke:#000000;stroke-width:6;stroke-linecap:butt;stroke-linejoin:miter;stroke-miterlimit:4;stroke-dasharray:none;stroke-opacity:1"
           d="M 378.57143,238.79075 C 392.39045,249.45362 406.19263,260.12323 410.71429,274.50504 C 412.33254,260.34282 419.57959,248.43211 430.71429,238.07647 C 416.01502,242.33708 396.89544,239.96725 378.57143,238.79075 z"
           id="path3265"
           sodipodi:nodetypes="cccc" />
        <path
           style="fill:#a8ff00;fill-opacity:1;fill-rule:evenodd;stroke:#000000;stroke-width:6;stroke-linecap:butt;stroke-linejoin:miter;stroke-miterlimit:4;stroke-dasharray:none;stroke-opacity:1"
           d="M 369.28571,246.6479 C 381.1907,257.60141 395.06893,278.42111 405,279.50504 C 404.48739,284.57227 402.28873,289.07747 407.14286,295.93361 C 400.9077,293.19852 385.54907,295.9375 370,298.79075 C 374.15912,284.34128 370.32128,264.5605 369.28571,246.6479 z"
           id="path3267"
           sodipodi:nodetypes="ccccc" />
        <path
           style="fill:#a8ff00;fill-opacity:1;fill-rule:evenodd;stroke:#000000;stroke-width:6;stroke-linecap:butt;stroke-linejoin:miter;stroke-miterlimit:4;stroke-dasharray:none;stroke-opacity:1"
           d="M 363.57143,308.79075 C 368.779,341.64167 363.97681,357.29911 368.97313,364.76841 C 375.22037,374.10777 389.74159,361.30188 402.14286,363.79075 C 409.06082,354.26694 412.7692,344.74313 428.57143,335.21932 C 417.73342,331.02387 419.93357,315.2934 414.16499,311.25675 C 401.11475,302.12462 383.48988,317.75308 363.57143,308.79075 z"
           id="path3269"
           sodipodi:nodetypes="csccsc" />
        <path
           style="fill:#a8ff00;fill-opacity:1;fill-rule:evenodd;stroke:#000000;stroke-width:6;stroke-linecap:butt;stroke-linejoin:miter;stroke-miterlimit:4;stroke-dasharray:none;stroke-opacity:1"
           d="M 365.71428,378.07647 C 359.07441,401.36773 360.11918,420.46912 363.57143,438.07647 C 382.5751,437.94389 409.53473,436.85755 405.71429,440.21933 C 409.8456,425.41024 416.90381,413.62655 419.44063,405.34259 C 421.15283,399.75143 410.71199,392.18377 407.85714,378.07647 C 391.14924,380.57115 371.23306,384.90606 365.71428,378.07647 z"
           id="path3271"
           sodipodi:nodetypes="cccscc" />
        <path
           style="fill:#a8ff00;fill-opacity:1;fill-rule:evenodd;stroke:#000000;stroke-width:6;stroke-linecap:butt;stroke-linejoin:miter;stroke-miterlimit:4;stroke-dasharray:none;stroke-opacity:1"
           d="M 366.42857,449.50504 C 370.72296,476.89467 363.99999,493.26694 361.42857,513.79076 C 373.09524,514.34523 384.7619,515.20497 396.42857,519.50504 C 399.05014,507.30329 409.24238,496.99421 419.28571,486.6479 C 413.00903,482.85891 409.63585,470.35941 407.14286,455.21933 C 392.48905,453.74752 372.5176,454.40276 366.42857,449.50504 z"
           id="path3273"
           sodipodi:nodetypes="cccccc" />
        <path
           style="fill:#a8ff00;fill-opacity:1;fill-rule:evenodd;stroke:#000000;stroke-width:6;stroke-linecap:butt;stroke-linejoin:miter;stroke-miterlimit:4;stroke-dasharray:none;stroke-opacity:1"
           d="M 350.71429,515.21932 L 347.85714,451.6479 C 339.80385,453.96718 332.29303,456.72042 315,451.6479 C 314.02451,464.26695 310.71099,476.88599 302.14286,489.50504 C 311.55811,499.50504 319.82256,509.50504 323.57143,519.50504 C 332.61905,514.71599 341.66667,512.41071 350.71429,515.21932 z"
           id="path3275"
           sodipodi:nodetypes="cccccc" />
        <path
           style="fill:#a8ff00;fill-opacity:1;fill-rule:evenodd;stroke:#000000;stroke-width:6;stroke-linecap:butt;stroke-linejoin:miter;stroke-miterlimit:4;stroke-dasharray:none;stroke-opacity:1"
           d="M 342.85714,389.50504 C 324.97398,393.92281 319.59861,389.94383 308.57143,389.50504 C 305.2381,399.02885 299.76191,405.45742 290.71429,413.07647 C 300.84596,420.6626 304.62834,429.30034 307.14286,438.79075 C 318.48686,435.20371 331.81098,437.55703 345,439.50504 C 336.12081,431.96376 342.43937,421.06654 342.85714,389.50504 z"
           id="path3277"
           sodipodi:nodetypes="cccccc" />
        <path
           style="fill:#a8ff00;fill-opacity:1;fill-rule:evenodd;stroke:#000000;stroke-width:6;stroke-linecap:butt;stroke-linejoin:miter;stroke-miterlimit:4;stroke-dasharray:none;stroke-opacity:1"
           d="M 346.42857,310.93361 C 338.31072,333.84289 347.25236,353.34028 347.85714,374.50504 C 339.10896,368.15341 321.69955,373.35008 307.85714,373.79075 C 308.49551,365.19402 294.23856,351.63218 284.28571,339.50504 C 292.02698,330.19036 304.10027,321.95868 305,310.93361 C 318.46344,311.97185 331.20122,315.1871 346.42857,310.93361 z"
           id="path3279"
           sodipodi:nodetypes="cccccc" />
        <path
           style="fill:#a8ff00;fill-opacity:1;fill-rule:evenodd;stroke:#000000;stroke-width:6;stroke-linecap:butt;stroke-linejoin:miter;stroke-miterlimit:4;stroke-dasharray:none;stroke-opacity:1"
           d="M 303.57143,283.79075 L 302.85714,298.79075 C 319.6211,299.3591 339.51201,295.23702 352.85714,300.93361 C 351.17785,282.2242 346.12569,258.45548 351.42857,250.21932 C 343.87295,252.41 336.40281,254.34422 330.71429,250.93361 C 327.05556,272.57647 313.50525,274.54459 303.57143,283.79075 z"
           id="path3281"
           sodipodi:nodetypes="cccccc" />
        <path
           sodipodi:type="arc"
           style="opacity:0.77889446;fill:#f5ff00;fill-opacity:1;stroke:#ffff02;stroke-width:6;stroke-linecap:round;stroke-miterlimit:4;stroke-dasharray:none;stroke-opacity:1"
           id="path3289"
           sodipodi:cx="348.21429"
           sodipodi:cy="129.50504"
           sodipodi:rx="6.0714288"
           sodipodi:ry="5.7142859"
           d="M 354.28572,129.50504 A 6.0714288,5.7142859 0 1 1 354.28404,129.37067"
           sodipodi:start="0"
           sodipodi:end="6.2596687"
           sodipodi:open="true"
           transform="matrix(0.6637874,0,0,0.6637874,118.14546,42.826943)" />
        <path
           sodipodi:type="arc"
           style="opacity:0.77889446;fill:#f5ff00;fill-opacity:1;stroke:#ffff02;stroke-width:6;stroke-linecap:round;stroke-miterlimit:4;stroke-dasharray:none;stroke-opacity:1"
           id="path3287"
           sodipodi:cx="348.21429"
           sodipodi:cy="129.50504"
           sodipodi:rx="6.0714288"
           sodipodi:ry="5.7142859"
           d="M 354.28572,129.50504 A 6.0714288,5.7142859 0 1 1 354.28404,129.37067"
           sodipodi:start="0"
           sodipodi:end="6.2596687"
           sodipodi:open="true"
           transform="matrix(0.6637874,0,0,0.6637874,157.95265,39.32822)" />
        <path
           style="fill:#34ff02;fill-opacity:1;fill-rule:evenodd;stroke:#000000;stroke-width:5.86401844;stroke-linecap:butt;stroke-linejoin:miter;stroke-miterlimit:4;stroke-dasharray:none;stroke-opacity:1"
           d="M 352.23371,54.079904 C 345.72125,71.526819 349.18473,91.324291 332.81452,90.644458 C 327.05588,68.466305 325.96016,68.49041 330.45995,60.924036 C 334.38687,54.32094 343.5556,60.236851 352.23371,54.079904 z"
           id="path3297"
           sodipodi:nodetypes="ccsc" />
        <path
           style="fill:#00a600;fill-opacity:1;fill-rule:evenodd;stroke:#000000;stroke-width:6;stroke-linecap:butt;stroke-linejoin:miter;stroke-miterlimit:4;stroke-dasharray:none;stroke-opacity:1"
           d="M 444.9722,607.38999 C 456.75731,640.21995 489.02944,593.40612 489.41891,651.33162 C 493.28434,632.79057 495.63491,590.76924 504.5712,650.82655 C 513.06577,609.28265 520.65312,613.09957 527.80471,638.70472 C 526.85941,603.85189 530.043,586.14983 546.49253,623.55243 C 531.40753,593.72036 540.24234,589.45774 564.1702,601.32907 C 559.87228,590.32711 535.10057,577.75024 514.16765,565.46866 C 495.14041,596.60355 468.96966,597.37855 444.9722,607.38999 z"
           id="path3303"
           sodipodi:nodetypes="cccccccc" />
        <path
           style="fill:#00a600;fill-opacity:1;fill-rule:evenodd;stroke:#000000;stroke-width:6;stroke-linecap:butt;stroke-linejoin:miter;stroke-miterlimit:4;stroke-dasharray:none;stroke-opacity:1"
           d="M 281.78571,600.21932 C 285.94646,642.42828 243.15248,599.91369 238.21429,652.71932 C 231.08616,633.79133 223.52346,610.33128 222.85714,658.79075 C 202.51781,612.54061 203.54049,637.49716 202.5,655.57647 C 197.39269,634.02616 191.15302,609.51707 181.42857,645.21933 C 187.53336,600.77345 174.75507,611.71212 161.42857,620.93361 C 174.96043,573.19763 202.45781,597.07556 219.64286,565.21932 C 240.96703,578.86949 263.14353,593.72111 281.78571,600.21932 z"
           id="path3305"
           sodipodi:nodetypes="cccccccc" />
        <path
           style="fill:#00a600;fill-opacity:1;fill-rule:evenodd;stroke:#000000;stroke-width:6;stroke-linecap:butt;stroke-linejoin:miter;stroke-miterlimit:4;stroke-dasharray:none;stroke-opacity:1"
           d="M 283.92857,211.29075 C 241.69478,164.5188 246.61245,135.10774 211.42857,105.21932 C 216.0339,131.53928 203.51124,119.93299 195.71429,118.79075 C 208.33426,137.36274 202.49013,144.85626 181.78571,143.43361 C 190.85165,150.70115 196.46286,156.9057 181.07143,156.6479 C 193.9724,164.34807 207.26258,175.94035 219.28571,174.86218 C 223.69184,200.74739 232.63088,192.78764 245.35714,217.71932 C 254.0199,212.33446 269.6178,211.0276 283.92857,211.29075 z"
           id="path3307"
           sodipodi:nodetypes="cccccccc" />
      </g>
    </g>
  </g>
</svg>
