<?xml version="1.0" encoding="UTF-8" standalone="no"?>
<!-- Created with Inkscape (http://www.inkscape.org/) -->
<svg
   xmlns:dc="http://purl.org/dc/elements/1.1/"
   xmlns:cc="http://web.resource.org/cc/"
   xmlns:rdf="http://www.w3.org/1999/02/22-rdf-syntax-ns#"
   xmlns:svg="http://www.w3.org/2000/svg"
   xmlns="http://www.w3.org/2000/svg"
   xmlns:sodipodi="http://sodipodi.sourceforge.net/DTD/sodipodi-0.dtd"
   xmlns:inkscape="http://www.inkscape.org/namespaces/inkscape"
   width="235.07141"
   height="270.5361"
   id="svg5213"
   sodipodi:version="0.32"
   inkscape:version="0.45+devel"
   version="1.0"
   sodipodi:docbase="/home/alvaro"
   sodipodi:docname="tortuga6.svg"
   inkscape:output_extension="org.inkscape.output.svg.inkscape"
   inkscape:export-filename="/home/alvaro/tortuga6.png"
   inkscape:export-xdpi="90"
   inkscape:export-ydpi="90"
   sodipodi:modified="TRUE">
  <defs
     id="defs5215" />
  <sodipodi:namedview
     id="base"
     pagecolor="#ffffff"
     bordercolor="#666666"
     borderopacity="1.0"
     inkscape:pageopacity="0.0"
     inkscape:pageshadow="2"
     inkscape:zoom="1.4"
     inkscape:cx="158.04805"
     inkscape:cy="143.18753"
     inkscape:document-units="px"
     inkscape:current-layer="layer1"
     width="240px"
     height="320px"
     inkscape:window-width="1022"
     inkscape:window-height="690"
     inkscape:window-x="0"
     inkscape:window-y="26" />
  <metadata
     id="metadata5218">
    <rdf:RDF>
      <cc:Work
         rdf:about="">
        <dc:format>image/svg+xml</dc:format>
        <dc:type
           rdf:resource="http://purl.org/dc/dcmitype/StillImage" />
      </cc:Work>
    </rdf:RDF>
  </metadata>
  <g
     inkscape:label="Capa 1"
     inkscape:groupmode="layer"
     id="layer1"
     transform="translate(-3.3571541,-0.1428567)">
    <path
       style="fill:none;fill-opacity:1;fill-rule:evenodd;stroke:#ff0000;stroke-width:4;stroke-linecap:butt;stroke-linejoin:miter;stroke-miterlimit:4;stroke-dasharray:none;stroke-opacity:1"
       d="M 118.57143,197.85715 L 126.46802,205.79776 L 114.12788,211.6289 L 134.99999,231.42857 L 94.285715,267.14286"
       id="path6322"
       sodipodi:nodetypes="ccccc" />
    <g
       id="g6310"
       transform="translate(122.14286,32.857143)">
      <path
         transform="matrix(1.2612816,0,0,0.997433,-161.62101,-41.789899)"
         sodipodi:open="true"
         sodipodi:end="6.2596687"
         sodipodi:start="0"
         d="M 170.46946,137.5 A 42.612316,71.071426 0 1 1 170.45767,135.8288"
         sodipodi:ry="71.071426"
         sodipodi:rx="42.612316"
         sodipodi:cy="137.5"
         sodipodi:cx="127.85714"
         id="path5316"
         style="opacity:1;fill:#ff0000;fill-opacity:1;stroke:#000000;stroke-width:3;stroke-linecap:butt;stroke-miterlimit:4;stroke-dasharray:none;stroke-opacity:1"
         sodipodi:type="arc" />
      <path
         sodipodi:nodetypes="cccccccccccccc"
         id="path6287"
         d="M 2.8571441,35.714286 L -12.857146,50 L 12.142854,65.714286 L -13.571426,83.571429 L 12.857144,103.57143 L -12.857146,122.85714 L 9.2857141,144.28572 L -12.142856,162.14286 L -1.4285759,172.14286 L -14.999996,177.14286 L 7.1428592,198.57143 C -10.932782,220.56442 -56.071016,242.98385 -10.309163,233.11715 L -30.831363,235.82183 L -27.857144,212.85714"
         style="fill:none;fill-rule:evenodd;stroke:#000000;stroke-width:4;stroke-linecap:butt;stroke-linejoin:miter;stroke-miterlimit:4;stroke-dasharray:none;stroke-opacity:1" />
      <g
         id="g6297">
        <path
           style="fill:#800000;fill-opacity:1;fill-rule:evenodd;stroke:#000000;stroke-width:4;stroke-linecap:butt;stroke-linejoin:miter;stroke-miterlimit:4;stroke-dasharray:none;stroke-opacity:1"
           d="M 27.142854,55.714285 C 90.768881,27.232347 84.705972,26.331076 104.28572,7.1428581 C 90.796297,25.394179 105.36499,37.730247 114.28571,113.57143 C 91.257085,95.756401 80.670403,92.160734 70.71429,89.285719 C 61.725613,100.26757 62.723478,116.24269 65,132.85714 C 54.11193,117.63205 41.125255,109.75208 26.42857,107.85714"
           id="path6291"
           sodipodi:nodetypes="cccccc" />
        <path
           style="fill:none;fill-opacity:1;fill-rule:evenodd;stroke:#585858;stroke-width:4;stroke-linecap:round;stroke-linejoin:miter;stroke-miterlimit:4;stroke-dasharray:none;stroke-opacity:1"
           d="M 112.14285,107.85714 L 75.714289,67.857142"
           id="path6293"
           sodipodi:nodetypes="cc" />
        <path
           style="fill:none;fill-opacity:1;fill-rule:evenodd;stroke:#585858;stroke-width:4;stroke-linecap:round;stroke-linejoin:miter;stroke-miterlimit:4;stroke-dasharray:none;stroke-opacity:1"
           d="M 60.357138,121.42857 L 38.928577,78.571429"
           id="path6295"
           sodipodi:nodetypes="cc" />
      </g>
      <g
         transform="matrix(-1,0,0,1,-3.2142859,-1.4285711)"
         id="g6302">
        <path
           style="fill:#800000;fill-opacity:1;fill-rule:evenodd;stroke:#000000;stroke-width:4;stroke-linecap:butt;stroke-linejoin:miter;stroke-miterlimit:4;stroke-dasharray:none;stroke-opacity:1"
           d="M 22.142854,55.714285 C 82.197453,40.08949 88.991686,29.902505 108.57143,10.714287 C 95.082011,28.965608 104.6507,39.873104 113.57142,115.71429 C 90.542799,97.899258 80.670403,92.160734 70.71429,89.285719 C 61.725613,100.26757 62.723478,116.24269 65,132.85714 C 54.11193,117.63205 41.125255,109.75208 26.42857,107.85714"
           id="path6304"
           sodipodi:nodetypes="cccccc" />
        <path
           style="fill:none;fill-opacity:1;fill-rule:evenodd;stroke:#585858;stroke-width:4;stroke-linecap:round;stroke-linejoin:miter;stroke-miterlimit:4;stroke-dasharray:none;stroke-opacity:1"
           d="M 110.71428,108.57143 L 75.714289,67.857142"
           id="path6306"
           sodipodi:nodetypes="cc" />
        <path
           style="fill:none;fill-opacity:1;fill-rule:evenodd;stroke:#585858;stroke-width:4;stroke-linecap:round;stroke-linejoin:miter;stroke-miterlimit:4;stroke-dasharray:none;stroke-opacity:1"
           d="M 60.357138,121.42857 L 38.928577,78.571429"
           id="path6308"
           sodipodi:nodetypes="cc" />
      </g>
    </g>
    <path
       style="fill:#ff0000;fill-opacity:1;fill-rule:evenodd;stroke:#000000;stroke-width:4.11968708;stroke-linecap:butt;stroke-linejoin:miter;stroke-miterlimit:4;stroke-dasharray:none;stroke-opacity:1"
       d="M 102.17063,60.654442 C 75.286319,38.222216 86.240836,32.361515 96.467213,25.73522 L 96.467217,2.9618138 L 135.67825,2.2027002 L 137.10411,25.73522 C 148.95309,29.710661 157.35453,39.31098 136.39118,59.895329 C 126.20593,58.414048 117.71127,54.532624 102.17063,60.654442 z"
       id="path6324"
       sodipodi:nodetypes="ccccccc" />
    <rect
       style="fill:#ff0000;fill-opacity:1;stroke:#ff0000;stroke-width:4.07740736;stroke-linecap:round;stroke-miterlimit:4;stroke-dasharray:none;stroke-opacity:1"
       id="rect6326"
       width="31.351164"
       height="13.49402"
       x="104.32442"
       y="52.181561" />
    <path
       sodipodi:type="arc"
       style="fill:#000000;fill-opacity:1;stroke:#000000;stroke-width:4;stroke-linecap:round;stroke-miterlimit:4;stroke-dasharray:none;stroke-opacity:1"
       id="path6328"
       sodipodi:cx="26.428572"
       sodipodi:cy="-27.142857"
       sodipodi:rx="3.5714285"
       sodipodi:ry="4.2857141"
       d="M 30,-27.142857 A 3.5714285,4.2857141 0 1 1 29.999013,-27.243633"
       sodipodi:start="0"
       sodipodi:end="6.2596687"
       sodipodi:open="true"
       transform="matrix(0.551282,0,0,0.551282,91.501832,27.142857)" />
    <path
       sodipodi:type="arc"
       style="fill:#000000;fill-opacity:1;stroke:#000000;stroke-width:4;stroke-linecap:round;stroke-miterlimit:4;stroke-dasharray:none;stroke-opacity:1"
       id="path6330"
       sodipodi:cx="26.428572"
       sodipodi:cy="-27.142857"
       sodipodi:rx="3.5714285"
       sodipodi:ry="4.2857141"
       d="M 30,-27.142857 A 3.5714285,4.2857141 0 1 1 29.999013,-27.243633"
       sodipodi:start="0"
       sodipodi:end="6.2596687"
       sodipodi:open="true"
       transform="matrix(0.551282,0,0,0.551282,112.57326,27.106225)" />
    <path
       sodipodi:type="arc"
       style="fill:#000000;fill-opacity:1;stroke:#000000;stroke-width:4;stroke-linecap:round;stroke-miterlimit:4;stroke-dasharray:none;stroke-opacity:1"
       id="path6332"
       sodipodi:cx="26.428572"
       sodipodi:cy="-27.142857"
       sodipodi:rx="3.5714285"
       sodipodi:ry="4.2857141"
       d="M 30,-27.142857 A 3.5714285,4.2857141 0 1 1 29.999013,-27.243633"
       sodipodi:start="0"
       sodipodi:end="6.2596687"
       sodipodi:open="true"
       transform="matrix(0.7004213,0,0,1.4255647,82.917444,78.336756)" />
    <path
       sodipodi:type="arc"
       style="fill:#000000;fill-opacity:1;stroke:#000000;stroke-width:4;stroke-linecap:round;stroke-miterlimit:4;stroke-dasharray:none;stroke-opacity:1"
       id="path6334"
       sodipodi:cx="26.428572"
       sodipodi:cy="-27.142857"
       sodipodi:rx="3.5714285"
       sodipodi:ry="4.2857141"
       d="M 30,-27.142857 A 3.5714285,4.2857141 0 1 1 29.999013,-27.243633"
       sodipodi:start="0"
       sodipodi:end="6.2596687"
       sodipodi:open="true"
       transform="matrix(0.7004213,0,0,1.4255647,115.20315,77.979612)" />
  </g>
</svg>
