<?xml version="1.0" encoding="UTF-8" standalone="no"?>
<!-- Created with Inkscape (http://www.inkscape.org/) -->
<svg
   xmlns:dc="http://purl.org/dc/elements/1.1/"
   xmlns:cc="http://web.resource.org/cc/"
   xmlns:rdf="http://www.w3.org/1999/02/22-rdf-syntax-ns#"
   xmlns:svg="http://www.w3.org/2000/svg"
   xmlns="http://www.w3.org/2000/svg"
   xmlns:sodipodi="http://sodipodi.sourceforge.net/DTD/sodipodi-0.dtd"
   xmlns:inkscape="http://www.inkscape.org/namespaces/inkscape"
   width="267.99997"
   height="320.76685"
   id="svg8095"
   sodipodi:version="0.32"
   inkscape:version="0.45+devel"
   sodipodi:docbase="/home/alvaro"
   sodipodi:docname="tortuga1.svg"
   inkscape:output_extension="org.inkscape.output.svg.inkscape"
   version="1.0"
   sodipodi:modified="true">
  <defs
     id="defs8097" />
  <sodipodi:namedview
     id="base"
     pagecolor="#ffffff"
     bordercolor="#666666"
     borderopacity="1.0"
     inkscape:pageopacity="0.0"
     inkscape:pageshadow="2"
     inkscape:zoom="0.24748737"
     inkscape:cx="652.24156"
     inkscape:cy="441.80152"
     inkscape:document-units="px"
     inkscape:current-layer="layer1"
     inkscape:window-width="1022"
     inkscape:window-height="690"
     inkscape:window-x="0"
     inkscape:window-y="26"
     width="524.40945px"
     height="744.09449px" />
  <metadata
     id="metadata8100">
    <rdf:RDF>
      <cc:Work
         rdf:about="">
        <dc:format>image/svg+xml</dc:format>
        <dc:type
           rdf:resource="http://purl.org/dc/dcmitype/StillImage" />
      </cc:Work>
    </rdf:RDF>
  </metadata>
  <g
     inkscape:label="Capa 1"
     inkscape:groupmode="layer"
     id="layer1"
     transform="translate(-9.1733695e-2,-561.74866)">
    <g
       id="g12336"
       transform="matrix(0.3630733,0,0,0.3630733,5.8427638e-2,562.09768)">
      <path
         sodipodi:nodetypes="cccccccc"
         id="path11318"
         d="M 293.9544,205.85436 L 391.93919,201.81375 C 395.61699,186.36529 392.83818,170.52113 393.86598,152.42266 C 398.50457,131.17399 405.08916,115.98624 405.07118,88.676655 C 392.60348,31.25783 387.08093,12.279833 338.99284,16.2923 C 310.01299,17.423032 270.92029,25.384596 273.75134,94.73757 C 275.0829,113.9574 274.82325,140.24831 281.3881,159.46815 C 285.65064,174.48756 292.10486,176.35696 293.9544,205.85436 z"
         style="fill:#707070;fill-opacity:1;fill-rule:evenodd;stroke:none;stroke-width:1px;stroke-linecap:butt;stroke-linejoin:miter;stroke-opacity:1" />
      <path
         sodipodi:nodetypes="ccscscscccscscscsc"
         id="path11320"
         d="M 337.21764,33.046475 C 315.64001,39.408482 293.87462,56.345408 290.92394,86.656349 C 296.66197,95.390161 302.4,100.05165 308.13803,102.73032 C 315.8687,106.33921 328.65013,103.82363 331.33004,107.86956 C 332.77156,110.65169 322.00456,117.73448 316.95249,123.83493 C 312.04853,129.75652 300.25259,140.69672 301.02546,145.24519 C 299.80039,149.65092 307.76734,149.02602 314.03809,151.79944 C 318.56979,153.80372 324.04322,155.47598 329.30973,157.36703 L 318.70504,169.02762 C 315.4949,172.72224 309.69575,175.69107 308.09653,180.60054 C 307.84179,184.59832 323.04803,178.71765 325.80438,183.21318 C 333.7244,196.1305 334.6084,187.79957 338.40111,190.70206 C 345.332,184.61107 335.81485,177.73565 337.3005,170.44181 C 338.8089,163.03625 354.32555,157.14788 358.60415,152.82134 C 361.7533,146.30482 358.34734,134.83037 364.27573,126.7758 C 369.07493,120.25538 384.76254,111.46479 385.87827,107.86956 C 384.98621,104.23239 373.51787,101.92846 370.32413,98.183695 C 353.04375,77.921927 397.21233,36.480592 337.21764,33.046475 z"
         style="fill:#a88e83;fill-opacity:1;fill-rule:evenodd;stroke:#a88e83;stroke-width:1px;stroke-linecap:butt;stroke-linejoin:miter;stroke-opacity:1" />
      <path
         sodipodi:nodetypes="cccccccc"
         id="path11322"
         d="M 528.57143,128.79075 C 539.52381,132.71601 550.47619,134.58956 561.42857,130.93361 C 571.72508,141.30757 580.32557,154.64957 597.85714,152.36218 C 592.71613,165.44679 597.32603,172.68085 601.42857,180.21932 C 577.39657,172.15766 566.82624,234.09674 551.42857,270.93361 L 492.14286,242.36218 C 492.52559,216.7573 510.1683,193.42108 521.42857,165.93361 C 538.36148,163.73015 534.24948,146.06818 528.57143,128.79075 z"
         style="fill:#707070;fill-opacity:1;fill-rule:evenodd;stroke:#707070;stroke-width:1px;stroke-linecap:butt;stroke-linejoin:miter;stroke-opacity:1" />
      <path
         sodipodi:nodetypes="cscscsc"
         id="path11324"
         d="M 532.14286,180.21933 C 525.31315,188.35913 546.16048,201.58189 535.86289,213.61831 C 531.19578,219.0735 519.29771,209.0009 515,221.6479 C 512.2996,228.43788 521.2635,246.07723 528.54244,246.16934 C 535.39406,246.25604 559.46862,218.47129 559.28572,216.6479 C 560.98826,211.04526 551.62355,199.41721 548.15719,194.81374 C 542.58909,187.4191 538.21019,176.67698 532.14286,180.21933 z"
         style="fill:#a88e83;fill-opacity:1;fill-rule:evenodd;stroke:#a88e83;stroke-width:1px;stroke-linecap:butt;stroke-linejoin:miter;stroke-opacity:1" />
      <path
         sodipodi:nodetypes="ccccscsc"
         id="path11326"
         d="M 280.8224,209.89496 C 249.20065,260.11243 270.91972,248.74765 141.42135,355.35692 C 140.04518,430.85065 74.419192,446.68381 141.42135,585.6717 C 142.08037,681.29125 162.17674,737.12805 337.39095,791.74282 C 438.76569,818.81986 473.50065,753.92666 550.7502,664.13363 C 584.4292,624.98597 614.71365,562.40099 587.90878,519.00164 C 619.7618,406.32652 549.75913,342.60629 514.85789,283.05746 C 462.19321,193.20046 368.74455,197.99649 280.8224,209.89496 z"
         style="fill:#674232;fill-opacity:0.99931539;fill-rule:evenodd;stroke:#674232;stroke-width:1px;stroke-linecap:butt;stroke-linejoin:miter;stroke-opacity:1" />
      <path
         sodipodi:nodetypes="cccc"
         id="path11328"
         d="M 377.79705,201.81375 C 334.74698,217.30275 296.43207,234.81206 274.76149,250.30107 C 303.56357,330.46387 335.39739,331.3406 353.55339,321.01175 C 361.51526,278.3083 400.49022,226.15921 377.79705,201.81375 z"
         style="fill:#8f5434;fill-opacity:1;fill-rule:evenodd;stroke:#674232;stroke-width:1px;stroke-linecap:butt;stroke-linejoin:miter;stroke-opacity:1" />
      <path
         sodipodi:nodetypes="cscsccccccccsc"
         id="path11330"
         d="M 375.71429,289.50504 C 378.60611,294.79627 417.33406,297.62656 424.32436,309.50754 C 437.38234,331.70137 383.63568,340.99071 382.85714,352.36219 C 381.35638,362.99022 435.17194,366.40398 459.10015,389.02915 C 474.12759,403.23824 489.50114,456.4531 500,460.93361 C 505.75678,466.77977 590.34742,440.54125 591.42857,428.07647 C 591.45598,412.18518 520.95238,388.55266 520,379.50504 C 604.23931,376.48749 527.04139,317.10677 498.57143,279.50504 C 473.98754,319.56737 458.40353,341.7731 441.42857,343.79076 C 458.35725,316.38338 480.83046,295.18578 480,253.79076 L 449.24688,231.30396 L 411.42857,215.21933 C 403.48142,226.09747 395.90969,237.53874 389.46625,250.67246 C 383.86466,262.09024 371.97293,279.07282 375.71429,289.50504 z"
         style="fill:#8f5434;fill-opacity:1;fill-rule:evenodd;stroke:#8f5434;stroke-width:1px;stroke-linecap:butt;stroke-linejoin:miter;stroke-opacity:1" />
      <path
         sodipodi:nodetypes="cscscsc"
         id="path11332"
         d="M 427.14285,413.79075 C 426.68092,399.57191 376.38762,395.92466 344.2337,398.98821 C 303.93449,402.82783 258.54625,420.69914 255.71429,463.79075 C 264.58811,485.0055 283.70823,469.93256 344.07334,475.42218 C 407.87151,481.22401 453.37066,478.93465 441.42857,465.21932 C 456.02015,445.57756 372.52558,447.67969 369.80554,441.01696 C 365.11171,429.51948 437.97955,439.42488 427.14285,413.79075 z"
         style="fill:#8f5434;fill-opacity:1;fill-rule:evenodd;stroke:#8f5434;stroke-width:1px;stroke-linecap:butt;stroke-linejoin:miter;stroke-opacity:1" />
      <path
         sodipodi:nodetypes="cscccsc"
         id="path11334"
         d="M 284.28571,526.64789 C 285.5524,504.3917 308.86689,503.26313 325.77553,504.2726 C 359.44256,506.28257 418.96676,501.04545 425.71428,506.64789 C 437.0063,520.47579 445.24593,585.55489 441.42857,598.07646 C 417.94268,609.61909 402.70189,607.86946 364.28571,606.64789 C 361.4722,588.42025 416.10516,598.81824 416.01878,593.04816 C 415.43078,552.34332 280.92426,540.84658 284.28571,526.64789 z"
         style="fill:#8f5434;fill-opacity:1;fill-rule:evenodd;stroke:#8f5434;stroke-width:1px;stroke-linecap:butt;stroke-linejoin:miter;stroke-opacity:1" />
      <path
         sodipodi:nodetypes="cccsc"
         id="path11336"
         d="M 191.42857,335.21933 C 180.64789,337.8813 152.72079,384.47096 157.14286,393.79076 C 165.22455,399.46439 215.67775,400.82399 237.14286,395.21933 C 237.22893,380.16771 225.6098,369.54012 218.87685,357.89801 C 211.93798,345.89984 201.085,333.00158 191.42857,335.21933 z"
         style="fill:#8f5434;fill-opacity:1;fill-rule:evenodd;stroke:#8f5434;stroke-width:1px;stroke-linecap:butt;stroke-linejoin:miter;stroke-opacity:1" />
      <path
         sodipodi:nodetypes="cscsc"
         id="path11338"
         d="M 132.85714,420.93362 C 131.48508,425.77085 135.61426,440.1144 146.57041,442.34767 C 156.56065,444.38405 170.22215,453.85909 190,448.07648 C 186.49518,441.48847 178.81813,435.7349 168.83358,430.44283 C 158.59705,425.01721 145.93507,414.36239 132.85714,420.93362 z"
         style="fill:#8f5434;fill-opacity:1;fill-rule:evenodd;stroke:#8f5434;stroke-width:1px;stroke-linecap:butt;stroke-linejoin:miter;stroke-opacity:1" />
      <path
         sodipodi:nodetypes="ccsccscscscsccscc"
         id="path11340"
         d="M 241.42857,433.79075 C 216.42259,467.25288 226.60787,459.47992 188.57143,435.21933 C 228.87778,473.1056 217.69235,495.69656 203.72071,502.66042 C 149.1722,529.84892 163.63104,469.28653 148.57143,463.79075 C 138.67842,466.32304 126.65341,507.53036 141.42857,528.07647 C 158.87175,541.63299 197.40653,502.92797 208.86791,555.68126 C 209.92824,560.56163 218.92776,632.06569 161.42857,586.6479 C 159.61811,634.30714 167.55096,661.68841 181.3047,689.05019 C 202.59871,731.41263 219.11563,734.34553 274.28571,673.79075 C 227.95756,750.9329 336.24273,781.74304 376.37218,778.68322 C 410.44086,776.08552 476.33137,727.19247 512.85714,698.07647 C 472.90865,693.21697 458.22274,691.68837 452.40733,677.55842 C 447.27789,665.0952 479.31358,649.8622 470,638.07647 C 443.69319,642.29315 419.2348,640.04038 385.71428,669.50504 C 445.37537,777.79168 382.78142,754.84029 369.08718,753.94853 C 356.78162,753.14719 306.99171,760.99937 340,670.93361 C 256.0912,642.93765 218.71041,568.41368 241.42857,433.79075 z"
         style="fill:#2a0001;fill-opacity:1;fill-rule:evenodd;stroke:#2a0001;stroke-width:1px;stroke-linecap:butt;stroke-linejoin:miter;stroke-opacity:1" />
      <path
         sodipodi:nodetypes="cscscsc"
         id="path11342"
         d="M 542.85714,475.21933 C 525.3759,476.08533 516.1838,507.7009 508.76604,523.20182 C 499.3389,542.90175 492.22781,573.3836 497.14286,580.93361 C 505.81329,590.02082 529.05759,582.80528 548.51848,579.21645 C 567.0657,575.79611 606.06917,570.6106 605.71428,558.07647 C 603.76152,544.71013 575.14081,538.2492 564.97734,524.7025 C 554.35646,510.54614 558.15954,477.74922 542.85714,475.21933 z"
         style="fill:#2a0001;fill-opacity:1;fill-rule:evenodd;stroke:#2a0001;stroke-width:1px;stroke-linecap:butt;stroke-linejoin:miter;stroke-opacity:1" />
      <path
         sodipodi:nodetypes="ccscsc"
         id="path11344"
         d="M 224.28571,312.36218 C 230.18023,302.05291 247.7933,275.42811 260,275.21932 C 269.72266,275.87705 272.23973,310.8205 274.90165,328.62109 C 277.36686,345.10622 288.73108,373.01991 281.42857,378.07646 C 272.55479,380.39455 263.68101,341.85892 254.80723,331.75101 C 244.79877,320.35062 234.45955,315.427 224.28571,312.36218 z"
         style="fill:#2a0001;fill-opacity:1;fill-rule:evenodd;stroke:#2a0001;stroke-width:1px;stroke-linecap:butt;stroke-linejoin:miter;stroke-opacity:1" />
      <path
         sodipodi:nodetypes="cscccc"
         id="path11346"
         d="M 21.42857,332.36218 C 28.14916,356.50913 47.58598,345.32144 53.0977,359.39417 C 60.16928,377.44958 33.9756,385.52224 44.28571,389.50504 C 44.40438,393.98215 102.34952,344.24712 132.85714,373.79075 L 164.28571,309.50504 C 104.63668,260.581 27.71365,314.27958 21.42857,332.36218 z"
         style="fill:#7c7e7e;fill-opacity:1;fill-rule:evenodd;stroke:#7c7e7e;stroke-width:1px;stroke-linecap:butt;stroke-linejoin:miter;stroke-opacity:1" />
      <path
         sodipodi:nodetypes="cccc"
         id="path11348"
         d="M 345.71429,800.93361 L 361.42857,852.36218 L 375.71429,812.36218 C 375.48808,798.77887 360.8629,799.59453 345.71429,800.93361 z"
         style="fill:#7c7e7e;fill-opacity:1;fill-rule:evenodd;stroke:#7c7e7e;stroke-width:1px;stroke-linecap:butt;stroke-linejoin:miter;stroke-opacity:1" />
      <path
         sodipodi:nodetypes="cccscccc"
         id="path11350"
         d="M 604.28571,516.64789 C 611.83517,543.53852 622.43276,569.55826 604.28571,603.79075 C 629.61222,607.79417 644.0524,626.52646 652.85714,629.50504 C 658.27825,621.39622 659.9177,632.61493 672.69286,610.5372 C 676.32058,604.26786 687.677,607.39911 698.57143,610.93361 C 707.66834,600.70387 714.71208,580.20832 720,550.93361 C 697.87898,542.36218 677.93819,533.79075 667.14286,525.21932 C 667.0172,572.94136 628.46316,527.33734 604.28571,516.64789 z"
         style="fill:#81807e;fill-opacity:1;fill-rule:evenodd;stroke:#7c7e7e;stroke-width:1px;stroke-linecap:butt;stroke-linejoin:miter;stroke-opacity:1" />
      <path
         sodipodi:nodetypes="cccccc"
         id="path11352"
         d="M 149.69966,710.12862 C 159.15522,736.98551 122.6406,734.92068 108.45671,748.26932 C 90.18663,785.56801 133.684,800.80857 113.19058,827.55143 C 128.31551,828.39169 145.0084,826.23542 156.45382,830.75519 C 177.34779,808.6926 193.25266,781.09703 227.65471,762.41146 L 149.69966,710.12862 z"
         style="fill:#79787a;fill-opacity:1;fill-rule:evenodd;stroke:#79787a;stroke-width:1px;stroke-linecap:butt;stroke-linejoin:miter;stroke-opacity:1" />
      <path
         sodipodi:nodetypes="cccsc"
         id="path11355"
         d="M 604.86003,526.87259 C 627.0515,530.92769 637.4774,540.87063 649.30674,550.1061 C 649.96926,579.72087 631.0512,587.54091 623.04277,596.57312 C 613.93982,594.31047 619.05457,565.68311 615.56673,552.22975 C 613.02154,542.41241 609.66081,533.68247 604.86003,526.87259 z"
         style="fill:#a08c7d;fill-opacity:1;fill-rule:evenodd;stroke:#a08c7d;stroke-width:1px;stroke-linecap:butt;stroke-linejoin:miter;stroke-opacity:1" />
      <path
         sodipodi:nodetypes="cccc"
         id="path11357"
         d="M 155.71428,732.36219 C 159.69899,759.0708 170.31608,762.31019 195.71428,768.07647 L 192.85714,749.50504 C 184.59086,752.0201 171.589,745.064 155.71428,732.36219 z"
         style="fill:#a38d80;fill-opacity:1;fill-rule:evenodd;stroke:#a38d80;stroke-width:1px;stroke-linecap:butt;stroke-linejoin:miter;stroke-opacity:1" />
      <path
         sodipodi:nodetypes="cccc"
         id="path11359"
         d="M 141.42857,289.50504 C 125.71428,282.82401 110,297.59501 94.285712,309.50503 C 97.066422,335.8229 115.30337,333.52323 128.57143,342.36218 C 138.75167,326.21676 146.33055,309.42101 141.42857,289.50504 z"
         style="fill:#a48e80;fill-opacity:1;fill-rule:evenodd;stroke:#a48e80;stroke-width:1px;stroke-linecap:butt;stroke-linejoin:miter;stroke-opacity:1" />
      <g
         transform="translate(2.0203051,-6.0609153)"
         id="g11269">
        <path
           style="fill:#070404;fill-opacity:1;fill-rule:evenodd;stroke:#0a0a0a;stroke-width:1px;stroke-linecap:butt;stroke-linejoin:miter;stroke-opacity:1"
           d="M 412.14224,109.88986 C 406.3799,85.83907 425.43856,95.635109 392.94934,35.138569 C 322.70405,-38.805811 273.36774,44.000184 252.53813,88.676654 C 228.22006,136.20477 305.48898,204.04736 258.59905,227.06755 C 267.24409,232.30363 274.13684,238.7079 274.76149,249.29091 C 259.56718,199.81394 384.70212,192.07365 371.73614,230.09801 C 464.44749,201.45785 478.6799,275.46037 531.34024,281.61579 C 523.79155,296.99829 516.61607,312.30615 522.24887,325.05235 C 576.2545,339.38863 625.36465,434.29631 578.81741,519.00164 C 640.44926,502.43792 611.9927,405.82448 564.67527,327.07266 C 511.43664,319.20092 546.06897,277.79458 569.72604,270.50411 C 587.82812,274.73062 560.47145,286.02782 550.53314,292.72747 C 559.29699,292.26318 572.34889,294.08025 583.86817,279.59549 C 592.25521,262.14798 573.86341,243.7099 566.69558,230.09801 C 560.82757,247.84934 566.52956,278.08727 545.48237,271.51427 C 477.4814,250.83272 473.61239,207.9175 393.95949,211.91527 C 392.31031,191.02158 405.74461,165.11153 407.09148,140.19443 C 385.76892,150.19527 391.07014,155.57441 389.91888,190.70206 C 383.52125,182.08595 377.12361,182.61529 370.72598,184.64115 C 378.47078,191.03868 392.1286,195.46521 384.86812,206.8645 C 323.46993,188.13852 318.0619,210.13265 284.86302,211.91526 C 284.78981,190.29213 267.69982,155.69283 259.60921,126.0523 C 273.80792,98.498042 277.53457,106.93873 295.9747,93.727418 C 304.76272,72.280635 300.21349,71.463638 299.00516,68.473604 L 269.71072,78.575129 C 279.43942,25.638256 316.44008,22.194544 349.51278,15.945671 C 378.92242,31.261462 390.60332,14.536984 412.14224,109.88986 z"
           id="path8104"
           sodipodi:nodetypes="ccccccccccccccccccccccccccc" />
        <path
           style="fill:#000000;fill-opacity:1;fill-rule:evenodd;stroke:#000000;stroke-width:1px;stroke-linecap:butt;stroke-linejoin:miter;stroke-opacity:1"
           d="M 285.87317,124.032 C 280.47508,127.22751 278.35542,131.92067 279.81225,139.18428 C 286.33628,151.47349 291.5414,179.36473 301.02546,170.49901 C 294.20357,155.01001 281.64396,139.521 285.87317,124.032 z"
           id="path9075"
           sodipodi:nodetypes="cccc" />
        <path
           style="fill:#000000;fill-opacity:1;fill-rule:evenodd;stroke:#000000;stroke-width:1px;stroke-linecap:butt;stroke-linejoin:miter;stroke-opacity:1"
           d="M 380.32243,69.483755 C 382.25043,81.483381 380.93895,95.102747 380.32243,108.37463 C 387.80284,103.05977 395.09068,97.552345 395.9798,85.646196 C 393.68509,74.409885 386.41383,73.126681 380.32243,69.483755 z"
           id="path10046"
           sodipodi:nodetypes="cccc" />
        <path
           style="fill:#000000;fill-rule:evenodd;stroke:#10100b;stroke-width:1px;stroke-linecap:butt;stroke-linejoin:miter;stroke-opacity:1"
           d="M 480.32754,238.17923 C 479.31747,201.30878 520.79244,203.20925 516.69303,168.4787 C 525.15164,170.49333 532.27755,167.17719 535.38085,147.77058 C 553.81402,155.47014 565.62554,139.62609 594.97985,186.15637 C 570.13362,184.79493 581.95344,212.53893 569.22096,221.00664 C 566.65708,188.14304 555.89924,183.95836 545.48237,178.58023 C 512.3192,192.28393 498.77917,205.84587 480.32754,238.17923 z"
           id="path10050"
           sodipodi:nodetypes="ccccccc" />
        <path
           style="fill:#000000;fill-opacity:1;fill-rule:evenodd;stroke:#000000;stroke-width:1px;stroke-linecap:butt;stroke-linejoin:miter;stroke-opacity:1"
           d="M 573.26157,112.92031 C 569.06606,121.81524 558.38489,131.60583 570.73619,144.23504 C 583.86827,150.46451 595.81704,150.28674 603.56615,145.75027 C 572.37119,140.90867 571.35365,125.32093 573.26157,112.92031 z"
           id="path10052"
           sodipodi:nodetypes="cccc" />
        <path
           style="fill:#000000;fill-opacity:1;fill-rule:evenodd;stroke:#000000;stroke-width:1px;stroke-linecap:butt;stroke-linejoin:miter;stroke-opacity:1"
           d="M 614.67782,148.78073 C 605.25028,159.93439 594.26573,171.50521 616.19305,193.22745 C 612.40644,179.71428 611.73284,164.98625 614.67782,148.78073 z"
           id="path10054"
           sodipodi:nodetypes="ccc" />
        <path
           style="fill:#000000;fill-opacity:1;fill-rule:evenodd;stroke:#000000;stroke-width:1px;stroke-linecap:butt;stroke-linejoin:miter;stroke-opacity:1"
           d="M 526.79455,121.00154 C 533.44577,127.01984 540.41547,132.8789 544.47222,140.19443 L 552.04837,128.0726 C 542.59977,128.80755 535.01495,123.95119 526.79455,121.00154 z"
           id="path10056"
           sodipodi:nodetypes="cccc" />
        <path
           style="fill:#000000;fill-opacity:1;fill-rule:evenodd;stroke:#000000;stroke-width:1px;stroke-linecap:butt;stroke-linejoin:miter;stroke-opacity:1"
           d="M 232.14286,245.93361 C 231.31307,257.605 228.38324,266.47634 232.85714,285.21932 C 190.60156,299.09265 190.84114,305.70182 156.00162,334.53918 C 137.61638,349.75699 148.0856,375.74277 113.57143,400.21932 C 108.82251,467.62365 94.449103,544.17124 125.71428,577.36218 C 124.128,636.31816 146.8125,672.73697 171.42857,707.36218 C 180.17288,735.18344 198.4345,752.8503 235.71429,761.6479 C 246.19526,716.90991 262.54676,701.52452 278.57143,684.50504 C 269.13326,708.86698 255.29108,735.43093 256.42857,754.50504 C 271.98257,767.04511 297.29343,777.14597 299.28571,793.07647 C 311.60205,801.46557 331.13922,785.44419 335,800.93361 C 322.85533,803.65665 340.56681,822.9938 269.28571,794.50504 L 260.71429,801.6479 C 265.12034,808.84834 278.28045,805.77485 282.14286,815.21933 C 270.37666,822.49689 257.95246,821.22039 244.28571,803.79075 C 248.57143,800.21932 252.85714,796.6479 257.14286,793.07647 C 234.74903,771.2328 216.92474,769.95207 202.14286,782.36218 L 190.71429,780.21933 C 194.10457,744.2957 166.10762,736.27182 153.57143,714.50504 C 154.29942,665.62391 86.239253,639.57236 112.14286,570.21932 C 50.004764,503.94575 147.51327,376.89515 78.571429,370.21932 C 68.324236,368.43816 66.593778,354.54148 53.571429,345.93361 C 54.13881,340.26492 58.243032,336.36465 66.428571,334.50504 C 79.709,357.75903 72.25923,323.80333 86.428572,320.93361 C 92.567753,340.80174 79.717659,355.92255 106.42857,380.93361 C 140.66223,378.61856 114.47463,350.77302 157.85714,311.6479 C 98.394877,277.40548 67.513633,303.01458 31.428571,322.36218 C 21.483852,319.44723 14.042367,322.54005 13.571429,342.36218 L -1.4285714,341.6479 C -0.026514371,330.45742 -1.3923558,319.26694 16.428571,308.07647 C 34.744155,328.65887 18.063627,288.79975 107.85714,282.36218 C 133.02225,281.32724 155.27605,291.74796 163.57143,305.21932 C 189.83627,309.3441 179.43984,277.67624 217.14286,280.21932 C 218.64817,258.30669 224.993,250.91259 232.14286,245.93361 z"
           id="path10058"
           sodipodi:nodetypes="ccsccccccccccccccccccccccccccccccc" />
        <path
           style="fill:#000000;fill-opacity:1;fill-rule:evenodd;stroke:#0d0d06;stroke-width:1px;stroke-linecap:butt;stroke-linejoin:miter;stroke-opacity:1"
           d="M 12.142858,351.6479 C 27.08192,363.92617 28.102124,377.46978 22.142858,391.6479 L 35,397.36218 C 48.840389,337.63618 22.26615,360.02316 12.142858,351.6479 z"
           id="path10114"
           sodipodi:nodetypes="cccc" />
        <path
           style="fill:#000000;fill-opacity:1;fill-rule:evenodd;stroke:#000000;stroke-width:1px;stroke-linecap:butt;stroke-linejoin:miter;stroke-opacity:1"
           d="M 57.142857,383.79075 L 58.571429,396.6479 L 79.285714,385.93361 L 57.142857,383.79075 z"
           id="path10116" />
        <path
           style="fill:#000000;fill-opacity:1;fill-rule:evenodd;stroke:#000000;stroke-width:1px;stroke-linecap:butt;stroke-linejoin:miter;stroke-opacity:1"
           d="M 118.57143,330.93361 L 107.14286,329.50504 C 103.23337,348.27639 103.21311,359.26931 105,366.6479 L 117.14286,366.6479 C 111.05639,354.74314 115.52045,342.83837 118.57143,330.93361 z"
           id="path10118"
           sodipodi:nodetypes="ccccc" />
        <path
           style="fill:#000000;fill-opacity:1;fill-rule:evenodd;stroke:#0b0b03;stroke-width:1px;stroke-linecap:butt;stroke-linejoin:miter;stroke-opacity:1"
           d="M 345.71429,809.50504 C 351.04438,826.84115 342.68846,859.5816 335,888.07647 C 354.17086,878.21818 373.66379,870.09902 383.57143,810.21933 C 460.63135,817.3027 518.61543,742.63394 586.42857,639.50504 C 599.81616,597.29558 614.7802,553.80996 589.28571,543.07647 C 590.94312,615.14298 552.38548,661.96629 523.6788,703.54984 C 486.33099,757.65061 444.8638,808.79007 374.28572,797.36219 C 357.81986,877.89482 353.26986,834.72181 345.71429,809.50504 z"
           id="path10120"
           sodipodi:nodetypes="cccccscc" />
        <path
           style="fill:#000000;fill-opacity:1;fill-rule:evenodd;stroke:#000000;stroke-width:1px;stroke-linecap:butt;stroke-linejoin:miter;stroke-opacity:1"
           d="M 137.14286,716.6479 C 133.57547,723.32062 130.06695,727.22451 133.57143,744.50504 C 113.24875,733.92528 101.71937,741.41485 88.571429,743.07647 L 88.571429,758.07647 C 102.16213,752.7352 114.60225,746.48265 130.71429,751.6479 C 137.95858,754.35007 113.17137,776.65067 118.57143,788.79075 C 125.65823,802.89443 140.10291,815.35451 159.28571,820.21933 C 165.27374,845.56773 142.43415,834.22643 129.28571,835.21933 C 133.27364,843.50806 140.53928,850.97736 152.14286,857.36218 C 164.21886,828.31593 185.1525,809.60358 208.57143,793.79075 C 188.28962,790.76062 168.11831,787.68629 157.14286,780.93361 C 136.09372,757.90699 142.9877,737.98516 137.14286,716.6479 z"
           id="path10125"
           sodipodi:nodetypes="cccccccccccc" />
        <path
           style="fill:#000000;fill-opacity:1;fill-rule:evenodd;stroke:#000000;stroke-width:1px;stroke-linecap:butt;stroke-linejoin:miter;stroke-opacity:1"
           d="M 103.57143,773.07647 C 102.85825,789.12915 98.816778,810.41202 110.71429,806.6479 C 111.8367,824.96984 108.85661,837.82178 98.571429,840.93361 C 102.31253,816.69524 85.411321,791.15011 103.57143,773.07647 z"
           id="path10127"
           sodipodi:nodetypes="cccc" />
        <path
           style="fill:#000000;fill-opacity:1;fill-rule:evenodd;stroke:#000000;stroke-width:1px;stroke-linecap:butt;stroke-linejoin:miter;stroke-opacity:1"
           d="M 596.42857,606.6479 C 607.66437,607.84956 619.16531,610.50946 628.57143,601.6479 C 634.66245,593.13951 636.46316,587.43256 632.14286,586.64789 C 622.46443,585.04045 635.94358,603.80961 596.42857,606.6479 z"
           id="path10131"
           sodipodi:nodetypes="cccc" />
        <path
           style="fill:#000000;fill-opacity:1;fill-rule:evenodd;stroke:#000000;stroke-width:1px;stroke-linecap:butt;stroke-linejoin:miter;stroke-opacity:1"
           d="M 616.07143,522.71932 C 617.46569,520.14096 633.7576,513.80408 666.42857,567.36218 C 675.41989,581.56785 674.89897,605.54495 666.07143,616.6479 C 657.42469,627.77031 642.02634,636.86828 639.28572,632.00504 C 634.29665,625.91484 677.7381,609.50504 661.07143,587.00504 C 656.37192,582.28078 658.70276,590.3669 646.58547,603.95292 C 637.17239,614.50695 624.08235,623.17135 621.42857,618.43361 C 618.33135,610.16817 654.37978,606.72458 653.92465,567.00538 C 653.62355,540.72915 614.50959,526.29209 616.07143,522.71932 z"
           id="path10135"
           sodipodi:nodetypes="cccccscsc" />
        <path
           style="fill:#000000;fill-opacity:1;fill-rule:evenodd;stroke:#000000;stroke-width:1px;stroke-linecap:butt;stroke-linejoin:miter;stroke-opacity:1"
           d="M 674.28572,550.93361 C 670.90972,553.47259 678.96807,560.47924 683.75205,569.429 C 688.14768,577.65226 686.42115,586.77831 692.85714,586.6479 C 697.52462,586.96709 694.22116,574.37778 689.09161,564.59215 C 683.90672,554.70094 678.99898,547.64324 674.28572,550.93361 z"
           id="path10137"
           sodipodi:nodetypes="cscsc" />
        <path
           style="fill:#000000;fill-opacity:1;fill-rule:evenodd;stroke:#0d0d09;stroke-width:1px;stroke-linecap:butt;stroke-linejoin:miter;stroke-opacity:1"
           d="M 655,527.36218 C 674.58966,550.21964 671.30373,529.39251 691.42857,534.1479 C 698.25085,537.46907 702.03681,545.02855 707.51182,552.35297 C 717.54927,565.78098 725.34803,563.06873 725.71429,567.71932 C 724.80488,581.67601 701.37318,599.16049 713.21429,614.1479 C 717.05993,607.43039 721.02303,589.13222 735.71429,568.79075 C 714.87322,551.88599 708.0766,539.98123 695.71429,525.57647 C 682.14286,526.88336 668.57143,532.03471 655,527.36218 z"
           id="path10139"
           sodipodi:nodetypes="ccsccccc" />
        <path
           style="fill:#837777;fill-opacity:1;fill-rule:evenodd;stroke:#000000;stroke-width:1px;stroke-linecap:butt;stroke-linejoin:miter;stroke-opacity:1"
           d="M 132.85714,775.93361 C 139.7619,778.83105 151.66667,792.47805 158.57143,800.93361 C 147.74819,796.87926 127.48908,790.78216 132.85714,775.93361 z"
           id="path10141"
           sodipodi:nodetypes="ccc" />
        <path
           style="fill:#000000;fill-opacity:1;fill-rule:evenodd;stroke:#0f1105;stroke-width:1px;stroke-linecap:butt;stroke-linejoin:miter;stroke-opacity:1"
           d="M 237.68171,525.28663 C 230.79584,522.92287 231.17557,494.16403 234.35539,478.59554 C 267.13216,475.93377 374.83603,473.66561 375.77675,482.63615 C 376.69207,499.65275 300.15108,485.72469 267.83791,493.71427 C 227.52844,503.68097 257.14573,525.5598 237.68171,525.28663 z"
           id="path10143"
           sodipodi:nodetypes="cccsc" />
        <path
           style="fill:#000000;fill-opacity:1;fill-rule:evenodd;stroke:#0b0b0b;stroke-width:1px;stroke-linecap:butt;stroke-linejoin:miter;stroke-opacity:1"
           d="M 405.71429,252.36218 C 389.52381,268.55266 377.38095,301.1717 382.85714,310.21933 C 419.40988,353.50252 432.99208,336.22068 455,335.93361 C 445.75003,318.57556 444.25067,344.83878 404.51015,315.03126 C 386.88356,301.81037 402.09414,275.04215 405.71429,252.36218 z"
           id="path10145"
           sodipodi:nodetypes="cccsc" />
        <path
           style="fill:#000000;fill-opacity:1;fill-rule:evenodd;stroke:#10100b;stroke-width:1px;stroke-linecap:butt;stroke-linejoin:miter;stroke-opacity:1"
           d="M 250.71429,315.93361 C 258.46213,321.49961 264.8633,331.10561 270.71429,342.36218 C 251.47871,360.18808 226.78457,361.13948 207.14286,400.93361 C 197.0708,402.58712 194.18015,391.31411 193.57143,375.93361 C 184.19776,378.11291 175.44017,383.37256 164.28571,376.6479 C 162.73603,368.33796 165.59847,360.91045 173.57143,354.50504 C 181.19397,357.66766 192.21308,368.47257 192.85714,355.93361 C 196.16947,359.78514 201.31763,359.965 199.28571,374.50504 C 215.00504,375.48844 218.64235,366.4454 230.16499,354.79994 C 235.14375,349.76812 248.90749,351.97539 256.42857,340.93361 L 242.14286,325.93361 C 241.1905,319.74315 244.0476,316.40979 250.71429,315.93361 z"
           id="path10147"
           sodipodi:nodetypes="ccccccccsccc" />
        <path
           style="fill:#000000;fill-opacity:1;fill-rule:evenodd;stroke:#0d0d06;stroke-width:1.48915339px;stroke-linecap:butt;stroke-linejoin:miter;stroke-opacity:1"
           d="M 143.28984,401.1782 C 176.42729,407.43955 184.72862,439.51518 173.78938,456.64305 L 190.96225,444.26046 C 184.94001,401.3942 179.01571,402.01023 143.28984,401.1782 z"
           id="path10149"
           sodipodi:nodetypes="cccc" />
        <path
           style="fill:#000000;fill-opacity:1;fill-rule:evenodd;stroke:#0f1105;stroke-width:1px;stroke-linecap:butt;stroke-linejoin:miter;stroke-opacity:1"
           d="M 295.85152,649.0332 C 284.42412,646.66944 287.93867,593.62489 298.23948,587.34211 C 308.35486,582.63996 385.73147,586.85519 416.8037,594.23986 C 417.71902,604.82789 381.43444,598.57355 343.15058,600.31798 C 280.76099,603.21486 315.31554,649.30637 295.85152,649.0332 z"
           id="path10151"
           sodipodi:nodetypes="cccsc" />
        <path
           style="fill:#000000;fill-opacity:1;fill-rule:evenodd;stroke:#0d0d06;stroke-width:1px;stroke-linecap:butt;stroke-linejoin:miter;stroke-opacity:1"
           d="M 513.57143,360.21932 C 507.6906,356.74416 467.54967,399.90241 467.14286,408.79075 C 467.00171,415.01259 472.74865,427.24453 477.04366,440.97158 C 482.35689,457.95285 487.55549,466.98224 496.42857,461.6479 C 485.29159,434.85013 481.37654,429.63908 480.71429,416.6479 C 479.35794,406.34055 484.12533,394.62889 493.44456,386.50115 C 505.36409,376.10557 522.0047,369.75609 513.57143,360.21932 z"
           id="path10155"
           sodipodi:nodetypes="ccsccsc" />
        <path
           style="fill:#080806;fill-opacity:1;fill-rule:evenodd;stroke:#0e0e04;stroke-width:1px;stroke-linecap:butt;stroke-linejoin:miter;stroke-opacity:1"
           d="M 375.75045,258.98795 C 381.14854,262.18346 381.83963,260.44805 380.3828,267.71166 C 373.85877,280.00087 375.7965,307.89211 364.88387,303.3121 C 355.66792,302.23824 368.69989,273.846 375.75045,258.98795 z"
           id="path10157"
           sodipodi:nodetypes="cccc" />
        <path
           style="fill:#000000;fill-opacity:1;fill-rule:evenodd;stroke:#000000;stroke-width:1px;stroke-linecap:butt;stroke-linejoin:miter;stroke-opacity:1"
           d="M 307.14286,310.93361 C 317.50087,312.84012 327.15967,313.3482 339.28571,318.79075 C 335.21107,300.16719 320.8412,309.00315 307.14286,310.93361 z"
           id="path10160"
           sodipodi:nodetypes="ccc" />
        <path
           style="fill:#000000;fill-opacity:1;fill-rule:evenodd;stroke:#000000;stroke-width:1px;stroke-linecap:butt;stroke-linejoin:miter;stroke-opacity:1"
           d="M 217.88561,161.48818 C 210.87669,170.45296 218.89292,173.36492 221.17684,183.13596 C 223.26657,192.07621 222.25146,201.60946 226.45703,201.80762 C 233.22316,202.20705 234.08243,193.84249 234.97155,181.93634 C 234.10541,173.55717 226.11986,155.84539 217.88561,161.48818 z"
           id="path11131"
           sodipodi:nodetypes="csccc" />
        <path
           style="fill:#000000;fill-opacity:1;fill-rule:evenodd;stroke:#000000;stroke-width:0.55639422px;stroke-linecap:butt;stroke-linejoin:miter;stroke-opacity:1"
           d="M 207.69195,191.25231 C 212.08967,195.67543 209.20278,198.54073 207.76973,203.36164 C 206.45854,207.77266 204.95261,211.04769 202.31384,211.14545 C 198.06846,211.34252 197.52931,207.21556 196.97144,201.3412 C 197.51489,197.20702 202.5254,188.46824 207.69195,191.25231 z"
           id="path11133"
           sodipodi:nodetypes="csccc" />
        <path
           style="fill:#000000;fill-opacity:1;fill-rule:evenodd;stroke:#000000;stroke-width:0.66346008px;stroke-linecap:butt;stroke-linejoin:miter;stroke-opacity:1"
           d="M 426.51614,281.7442 C 429.6264,287.47085 424.89916,290.36503 420.97044,295.72142 C 417.3758,300.62239 414.08107,304.18549 410.9338,303.92306 C 405.85182,303.54671 407.13925,298.71027 409.21813,291.85583 C 411.78146,287.16499 421.73913,277.79862 426.51614,281.7442 z"
           id="path11135"
           sodipodi:nodetypes="csccc" />
        <path
           style="fill:#000000;fill-opacity:1;fill-rule:evenodd;stroke:#000000;stroke-width:0.60750455px;stroke-linecap:butt;stroke-linejoin:miter;stroke-opacity:1"
           d="M 421.73904,305.08157 C 423.69307,298.37622 426.84704,304.86594 431.80184,304.6653 C 436.33532,304.48169 440.65714,300.66746 441.94174,303.64257 C 444.04394,308.41392 440.60362,310.60159 435.61156,313.47634 C 431.67359,314.43092 421.59738,312.0402 421.73904,305.08157 z"
           id="path11137"
           sodipodi:nodetypes="csccc" />
        <path
           style="fill:#000000;fill-opacity:1;fill-rule:evenodd;stroke:#000000;stroke-width:0.66346008px;stroke-linecap:butt;stroke-linejoin:miter;stroke-opacity:1"
           d="M 244.83758,446.08927 C 241.72732,440.36262 242.88314,437.46844 246.81186,432.11205 C 250.4065,427.21108 250.84408,423.64798 253.99135,423.91041 C 259.07333,424.28676 259.92876,433.40891 257.84988,440.26335 C 255.28655,444.95419 249.61459,450.03485 244.83758,446.08927 z"
           id="path11139"
           sodipodi:nodetypes="csccc" />
        <path
           style="fill:#000000;fill-opacity:1;fill-rule:evenodd;stroke:#000000;stroke-width:0.84309101px;stroke-linecap:butt;stroke-linejoin:miter;stroke-opacity:1"
           d="M 520.4356,406.5644 L 520.4356,413.30304 C 511.59754,414.40517 507.3772,417.92237 501.70726,421.72635 C 505.99708,415.25721 506.54652,406.07773 520.4356,406.5644 z"
           id="path11141"
           sodipodi:nodetypes="cccc" />
        <path
           style="fill:#080806;fill-opacity:1;fill-rule:evenodd;stroke:#0e0e04;stroke-width:0.96829933px;stroke-linecap:butt;stroke-linejoin:miter;stroke-opacity:1"
           d="M 128.79644,470.64713 C 132.83106,475.32153 129.39052,494.92583 129.76295,505.55105 C 127.79122,523.52772 137.62029,542.1842 129.80206,535.48456 C 123.70186,533.91372 123.37774,495.23865 128.79644,470.64713 z"
           id="path11143"
           sodipodi:nodetypes="cccc" />
        <path
           style="fill:#000000;fill-opacity:1;fill-rule:evenodd;stroke:#000000;stroke-width:1px;stroke-linecap:butt;stroke-linejoin:miter;stroke-opacity:1"
           d="M 138.57143,553.07647 C 161.5269,556.48272 174.42472,548.00266 176.42857,526.6479 C 193.49281,552.29245 174.81181,576.99229 138.57143,553.07647 z"
           id="path11145"
           sodipodi:nodetypes="ccc" />
        <path
           style="fill:#000000;fill-opacity:1;fill-rule:evenodd;stroke:#000000;stroke-width:1px;stroke-linecap:butt;stroke-linejoin:miter;stroke-opacity:1"
           d="M 142.85714,603.07647 C 168.45531,571.74548 168.14067,602.8271 187.14286,570.93361 C 192.85714,592.60028 211.49998,632.1955 204.28571,635.93361 C 196.23594,639.5464 195.53108,613.07464 189.90751,603.42551 C 182.74518,591.13613 171.08008,585.27926 142.85714,603.07647 z"
           id="path11147"
           sodipodi:nodetypes="cccsc" />
        <path
           style="fill:#000000;fill-opacity:1;fill-rule:evenodd;stroke:#000000;stroke-width:1px;stroke-linecap:butt;stroke-linejoin:miter;stroke-opacity:1"
           d="M 213.14219,462.4331 C 176.92829,540.02993 211.84558,598.57376 249.50768,656.38238 C 222.13881,601.26202 198.14111,544.03468 213.14219,462.4331 z"
           id="path11149"
           sodipodi:nodetypes="ccc" />
        <path
           style="fill:#000000;fill-opacity:1;fill-rule:evenodd;stroke:#000000;stroke-width:1px;stroke-linecap:butt;stroke-linejoin:miter;stroke-opacity:1"
           d="M 344.46202,719.51692 C 352.94297,720.05005 348.93819,744.78756 352.03141,753.36103 C 365.58142,790.91768 387.37363,775.71012 413.70192,766.18368 C 427.77041,761.09323 447.04983,744.63539 450.52804,748.81134 L 450.52804,749.31642 C 456.55073,757.32832 415.45524,774.13319 400.35763,780.75879 C 379.62281,789.85828 362.19676,788.33176 349.07701,762.35865 C 344.21081,752.72505 337.88843,719.78875 344.46202,719.51692 z"
           id="path11151"
           sodipodi:nodetypes="cssccssc" />
        <path
           style="fill:#000000;fill-opacity:1;fill-rule:evenodd;stroke:#000000;stroke-width:1px;stroke-linecap:butt;stroke-linejoin:miter;stroke-opacity:1"
           d="M 455.07372,478.59554 C 462.72987,478.37276 496.10567,517.92998 487.51055,578.61389 C 482.29218,615.45702 440.04701,668.22503 433.86052,667.49406 C 428.53152,667.59373 464.58774,631.11998 473.32554,575.57912 C 484.06426,507.31964 447.98849,478.02937 455.07372,478.59554 z"
           id="path11153"
           sodipodi:nodetypes="cscsc" />
        <path
           style="fill:#000000;fill-opacity:1;fill-rule:evenodd;stroke:#000000;stroke-width:1px;stroke-linecap:butt;stroke-linejoin:miter;stroke-opacity:1"
           d="M 549.01791,667.99914 C 530.01747,677.9556 517.62139,680.12306 513.26128,677.88882 C 507.97392,675.17944 521.12937,659.43112 515.68287,656.38238 C 510.09224,653.21235 510.43388,672.08948 497.46507,671.5614 C 490.90642,671.29435 479.15763,654.4605 475.27677,658.40269 C 470.485,662.51959 483.38727,677.77316 493.64753,682.20801 C 503.79002,686.59195 518.26049,687.31376 537.90623,683.6565 L 549.01791,667.99914 z"
           id="path11155"
           sodipodi:nodetypes="cscscscc" />
        <path
           style="fill:#000000;fill-opacity:1;fill-rule:evenodd;stroke:#000000;stroke-width:1px;stroke-linecap:butt;stroke-linejoin:miter;stroke-opacity:1"
           d="M 325.26912,647.29101 C 340.4619,654.89238 367.21059,657.67877 414.66762,651.8367 C 393.08069,665.57339 365.64898,668.45548 325.26912,647.29101 z"
           id="path11157"
           sodipodi:nodetypes="ccc" />
        <path
           style="fill:#000000;fill-opacity:1;fill-rule:evenodd;stroke:#000000;stroke-width:1px;stroke-linecap:butt;stroke-linejoin:miter;stroke-opacity:1"
           d="M 338.90618,676.08036 C 337.05731,679.6737 353.51315,683.28426 361.73849,684.4615 C 369.56425,685.58157 386.29838,686.42353 387.3935,681.6362 C 387.91506,676.48571 373.35506,674.53866 363.63062,674.03326 C 356.33282,673.65398 341.49448,669.32032 338.90618,676.08036 z"
           id="path11159"
           sodipodi:nodetypes="cscsc" />
        <path
           style="fill:#000000;fill-opacity:1;fill-rule:evenodd;stroke:#000000;stroke-width:1px;stroke-linecap:butt;stroke-linejoin:miter;stroke-opacity:1"
           d="M 393.45442,696.78849 C 387.75345,702.94534 383.48577,709.34106 380.1445,715.89119 C 376.42808,723.17677 377.39333,737.72444 371.73614,738.20474 C 367.41536,737.54151 366.98554,707.18112 393.45442,696.78849 z"
           id="path11161"
           sodipodi:nodetypes="cscc" />
        <path
           style="fill:#000000;fill-opacity:1;fill-rule:evenodd;stroke:#000000;stroke-width:1px;stroke-linecap:butt;stroke-linejoin:miter;stroke-opacity:1"
           d="M 266.1752,681.13112 C 262.16139,678.11016 232.57568,714.39467 216.06577,719.14276 C 207.52806,721.59812 194.05963,702.96934 190.91883,707.39509 C 185.83914,710.30057 204.97976,728.62832 213.09008,730.26808 C 221.82516,732.03416 259.6485,688.90412 266.1752,681.13112 z"
           id="path11163"
           sodipodi:nodetypes="cscsc" />
        <path
           style="fill:#000000;fill-opacity:1;fill-rule:evenodd;stroke:#111110;stroke-width:1px;stroke-linecap:butt;stroke-linejoin:miter;stroke-opacity:1"
           d="M 154.55334,619.51182 C 150.89094,622.68989 182.28275,689.15306 186.37314,687.19204 C 189.62981,683.29042 176.0401,661.78701 184.28733,656.32234 C 197.68782,647.44308 194.48858,662.92293 199.50513,657.89761 C 204.01286,654.40003 186.18692,626.76911 183.34269,628.60319 C 178.76891,631.07427 190.13441,639.90166 178.24132,642.46693 C 171.55642,643.90882 160.1576,616.3876 154.55334,619.51182 z"
           id="path11165"
           sodipodi:nodetypes="ccsccsc" />
        <path
           style="fill:#000000;fill-opacity:1;fill-rule:evenodd;stroke:#000000;stroke-width:1px;stroke-linecap:butt;stroke-linejoin:miter;stroke-opacity:1"
           d="M 389.41381,757.90272 C 390.97773,754.86252 401.69711,749.99124 416.68793,744.26566 C 418.80055,748.81135 411.51666,753.35703 389.41381,757.90272 z"
           id="path11167"
           sodipodi:nodetypes="ccc" />
        <path
           style="fill:#837777;fill-opacity:1;fill-rule:evenodd;stroke:#000000;stroke-width:1px;stroke-linecap:butt;stroke-linejoin:miter;stroke-opacity:1"
           d="M 573.1271,176.29076 C 566.22234,173.39332 566.46043,173.31775 559.55567,164.86219 C 570.37891,168.91654 578.49516,161.44221 573.1271,176.29076 z"
           id="path11169"
           sodipodi:nodetypes="ccc" />
      </g>
      <path
         transform="matrix(1.2448906,0,0,1.4652921,763.72383,-461.86481)"
         d="M -401.03057,718.00171 A 9.5964489,5.0507627 0 1 1 -420.22346,718.00171 A 9.5964489,5.0507627 0 1 1 -401.03057,718.00171 z"
         sodipodi:ry="5.0507627"
         sodipodi:rx="9.5964489"
         sodipodi:cy="718.00171"
         sodipodi:cx="-410.62701"
         id="path11361"
         style="opacity:1;fill:#040005;fill-opacity:1;stroke:#000000;stroke-width:1;stroke-linecap:butt;stroke-miterlimit:4;stroke-dasharray:none;stroke-opacity:1"
         sodipodi:type="arc" />
      <path
         transform="translate(675.28698,-108.08634)"
         d="M -401.03057,718.00171 A 9.5964489,5.0507627 0 1 1 -420.22346,718.00171 A 9.5964489,5.0507627 0 1 1 -401.03057,718.00171 z"
         sodipodi:ry="5.0507627"
         sodipodi:rx="9.5964489"
         sodipodi:cy="718.00171"
         sodipodi:cx="-410.62701"
         id="path12332"
         style="opacity:1;fill:#000000;fill-opacity:1;stroke:#000000;stroke-width:1;stroke-linecap:butt;stroke-miterlimit:4;stroke-dasharray:none;stroke-opacity:1"
         sodipodi:type="arc" />
      <path
         style="fill:#000000;fill-opacity:1;fill-rule:evenodd;stroke:#000000;stroke-width:0.50341147px;stroke-linecap:butt;stroke-linejoin:miter;stroke-opacity:1"
         d="M 517.76564,452.00013 L 517.76564,448.24955 C 523.4271,447.63613 526.13056,445.67854 529.76259,443.56133 C 527.01463,447.16191 526.66267,452.271 517.76564,452.00013 z"
         id="path12334"
         sodipodi:nodetypes="cccc" />
    </g>
  </g>
</svg>
